<mxfile host="65bd71144e" pages="2">
    <diagram id="Ffkdrd02ZP3RWOPQyg5y" name="Introduction">
        <mxGraphModel dx="613" dy="434" grid="1" gridSize="10" guides="1" tooltips="1" connect="1" arrows="1" fold="1" page="1" pageScale="1" pageWidth="850" pageHeight="1100" math="0" shadow="0">
            <root>
                <mxCell id="0"/>
                <mxCell id="1" parent="0"/>
                <mxCell id="8FKOKlOI1ehr0EpvAs1p-1" value="&lt;b&gt;&lt;font style=&quot;font-size: 15px&quot;&gt;Intro to design system&lt;/font&gt;&lt;/b&gt;" style="text;html=1;strokeColor=#d6b656;fillColor=#fff2cc;align=center;verticalAlign=middle;whiteSpace=wrap;rounded=0;" parent="1" vertex="1">
                    <mxGeometry x="310" y="130" width="185" height="30" as="geometry"/>
                </mxCell>
                <mxCell id="8FKOKlOI1ehr0EpvAs1p-3" value="&lt;span style=&quot;font-size: 15px&quot;&gt;&lt;b&gt;Architecture of Design System&lt;/b&gt;&lt;/span&gt;" style="text;html=1;strokeColor=#d6b656;fillColor=#fff2cc;align=center;verticalAlign=middle;whiteSpace=wrap;rounded=0;" parent="1" vertex="1">
                    <mxGeometry x="30" y="180" width="250" height="30" as="geometry"/>
                </mxCell>
            </root>
        </mxGraphModel>
    </diagram>
    <diagram id="DFvWxuN2IglXeyXr50t-" name="BlazeUI">
        <mxGraphModel dx="613" dy="434" grid="1" gridSize="10" guides="1" tooltips="1" connect="1" arrows="1" fold="1" page="1" pageScale="1" pageWidth="850" pageHeight="1100" math="0" shadow="0">
            <root>
                <mxCell id="0"/>
                <mxCell id="1" parent="0"/>
                <mxCell id="zX4bwrbI0dGe9knDL4wQ-1" value="&lt;span style=&quot;font-size: 15px&quot;&gt;&lt;b&gt;Architecture of BlazeUI&lt;/b&gt;&lt;/span&gt;" style="text;html=1;strokeColor=#d6b656;fillColor=#fff2cc;align=center;verticalAlign=middle;whiteSpace=wrap;rounded=0;" parent="1" vertex="1">
                    <mxGeometry x="352.5" y="110" width="250" height="30" as="geometry"/>
                </mxCell>
                <mxCell id="zX4bwrbI0dGe9knDL4wQ-2" value="" style="rounded=0;whiteSpace=wrap;html=1;fontSize=15;fillColor=#d0cee2;strokeColor=#56517e;" parent="1" vertex="1">
                    <mxGeometry x="80" y="250" width="120" height="60" as="geometry"/>
                </mxCell>
                <mxCell id="zX4bwrbI0dGe9knDL4wQ-3" value="&lt;span style=&quot;font-size: 15px&quot;&gt;&lt;b&gt;Icons&lt;br&gt;&lt;/b&gt;&lt;/span&gt;" style="text;html=1;align=center;verticalAlign=middle;whiteSpace=wrap;rounded=0;" parent="1" vertex="1">
                    <mxGeometry x="100" y="265" width="70" height="30" as="geometry"/>
                </mxCell>
                <mxCell id="zX4bwrbI0dGe9knDL4wQ-5" value="" style="rounded=0;whiteSpace=wrap;html=1;fontSize=15;fillColor=#d0cee2;strokeColor=#56517e;" parent="1" vertex="1">
                    <mxGeometry x="240" y="250" width="150" height="60" as="geometry"/>
                </mxCell>
                <mxCell id="zX4bwrbI0dGe9knDL4wQ-6" value="" style="rounded=0;whiteSpace=wrap;html=1;fontSize=15;fillColor=#d0cee2;strokeColor=#56517e;" parent="1" vertex="1">
                    <mxGeometry x="440" y="250" width="120" height="60" as="geometry"/>
                </mxCell>
                <mxCell id="zX4bwrbI0dGe9knDL4wQ-9" value="&lt;span style=&quot;font-size: 15px&quot;&gt;&lt;b&gt;Primitives / Core&lt;br&gt;&lt;/b&gt;&lt;/span&gt;" style="text;html=1;align=center;verticalAlign=middle;whiteSpace=wrap;rounded=0;" parent="1" vertex="1">
                    <mxGeometry x="246.25" y="265" width="137.5" height="30" as="geometry"/>
                </mxCell>
                <mxCell id="zX4bwrbI0dGe9knDL4wQ-11" value="&lt;span style=&quot;font-size: 15px&quot;&gt;&lt;b&gt;Themes&lt;br&gt;&lt;/b&gt;&lt;/span&gt;" style="text;html=1;align=center;verticalAlign=middle;whiteSpace=wrap;rounded=0;" parent="1" vertex="1">
                    <mxGeometry x="442.5" y="265" width="115" height="30" as="geometry"/>
                </mxCell>
                <mxCell id="zX4bwrbI0dGe9knDL4wQ-12" value="" style="rounded=0;whiteSpace=wrap;html=1;fontSize=15;fillColor=#d0cee2;strokeColor=#56517e;" parent="1" vertex="1">
                    <mxGeometry x="600" y="250" width="120" height="60" as="geometry"/>
                </mxCell>
                <mxCell id="zX4bwrbI0dGe9knDL4wQ-13" value="&lt;span style=&quot;font-size: 15px&quot;&gt;&lt;b&gt;components&lt;br&gt;&lt;/b&gt;&lt;/span&gt;" style="text;html=1;align=center;verticalAlign=middle;whiteSpace=wrap;rounded=0;" parent="1" vertex="1">
                    <mxGeometry x="602.5" y="265" width="115" height="30" as="geometry"/>
                </mxCell>
                <mxCell id="zX4bwrbI0dGe9knDL4wQ-14" value="" style="rounded=0;whiteSpace=wrap;html=1;fontSize=15;fillColor=#d0cee2;strokeColor=#56517e;" parent="1" vertex="1">
                    <mxGeometry x="760" y="250" width="120" height="60" as="geometry"/>
                </mxCell>
                <mxCell id="zX4bwrbI0dGe9knDL4wQ-15" value="&lt;span style=&quot;font-size: 15px&quot;&gt;&lt;b&gt;types&lt;br&gt;&lt;/b&gt;&lt;/span&gt;" style="text;html=1;align=center;verticalAlign=middle;whiteSpace=wrap;rounded=0;" parent="1" vertex="1">
                    <mxGeometry x="762.5" y="265" width="115" height="30" as="geometry"/>
                </mxCell>
                <mxCell id="zX4bwrbI0dGe9knDL4wQ-17" value="&lt;span style=&quot;font-size: 15px&quot;&gt;&lt;b&gt;Icons&lt;br&gt;&lt;/b&gt;&lt;/span&gt;" style="text;html=1;align=center;verticalAlign=middle;whiteSpace=wrap;rounded=0;fillColor=#fff2cc;strokeColor=#d6b656;" parent="1" vertex="1">
                    <mxGeometry x="80" y="420" width="80" height="30" as="geometry"/>
                </mxCell>
                <mxCell id="zX4bwrbI0dGe9knDL4wQ-24" value="" style="edgeStyle=orthogonalEdgeStyle;rounded=0;orthogonalLoop=1;jettySize=auto;html=1;fontSize=15;" parent="1" source="zX4bwrbI0dGe9knDL4wQ-18" target="zX4bwrbI0dGe9knDL4wQ-21" edge="1">
                    <mxGeometry relative="1" as="geometry"/>
                </mxCell>
                <mxCell id="zX4bwrbI0dGe9knDL4wQ-18" value="" style="rounded=0;whiteSpace=wrap;html=1;fontSize=15;fillColor=#d5e8d4;strokeColor=#82b366;" parent="1" vertex="1">
                    <mxGeometry x="240" y="505" width="210" height="60" as="geometry"/>
                </mxCell>
                <mxCell id="zX4bwrbI0dGe9knDL4wQ-19" value="&lt;span style=&quot;font-size: 15px&quot;&gt;&lt;b&gt;icons-generators&lt;br&gt;&lt;/b&gt;&lt;/span&gt;" style="text;html=1;align=center;verticalAlign=middle;whiteSpace=wrap;rounded=0;" parent="1" vertex="1">
                    <mxGeometry x="262.5" y="520" width="165" height="30" as="geometry"/>
                </mxCell>
                <mxCell id="zX4bwrbI0dGe9knDL4wQ-22" value="" style="edgeStyle=orthogonalEdgeStyle;rounded=0;orthogonalLoop=1;jettySize=auto;html=1;fontSize=15;entryX=0;entryY=0.417;entryDx=0;entryDy=0;entryPerimeter=0;" parent="1" source="zX4bwrbI0dGe9knDL4wQ-20" target="zX4bwrbI0dGe9knDL4wQ-18" edge="1">
                    <mxGeometry relative="1" as="geometry">
                        <mxPoint x="220" y="535" as="targetPoint"/>
                        <Array as="points">
                            <mxPoint x="200" y="530"/>
                            <mxPoint x="200" y="530"/>
                        </Array>
                    </mxGeometry>
                </mxCell>
                <mxCell id="zX4bwrbI0dGe9knDL4wQ-20" value="&lt;span style=&quot;font-size: 15px&quot;&gt;&lt;b&gt;.svg files&lt;br&gt;&lt;/b&gt;&lt;/span&gt;" style="text;html=1;align=center;verticalAlign=middle;whiteSpace=wrap;rounded=0;fillColor=#dae8fc;strokeColor=#6c8ebf;" parent="1" vertex="1">
                    <mxGeometry x="80" y="520" width="70" height="30" as="geometry"/>
                </mxCell>
                <mxCell id="zX4bwrbI0dGe9knDL4wQ-21" value="&lt;span style=&quot;font-size: 15px&quot;&gt;&lt;b&gt;react components&lt;br&gt;&lt;/b&gt;&lt;/span&gt;" style="text;html=1;align=center;verticalAlign=middle;whiteSpace=wrap;rounded=0;fillColor=#e1d5e7;strokeColor=#9673a6;" parent="1" vertex="1">
                    <mxGeometry x="480" y="520" width="170" height="30" as="geometry"/>
                </mxCell>
                <mxCell id="zX4bwrbI0dGe9knDL4wQ-25" value="&lt;span style=&quot;font-size: 15px&quot;&gt;&lt;b&gt;Themes&lt;br&gt;&lt;/b&gt;&lt;/span&gt;" style="text;html=1;align=center;verticalAlign=middle;whiteSpace=wrap;rounded=0;fillColor=#fff2cc;strokeColor=#d6b656;" parent="1" vertex="1">
                    <mxGeometry x="40" y="830" width="80" height="30" as="geometry"/>
                </mxCell>
                <mxCell id="zX4bwrbI0dGe9knDL4wQ-28" value="&lt;h1&gt;&lt;ol style=&quot;font-size: 15px&quot;&gt;&lt;li&gt;work with fonts&lt;/li&gt;&lt;li&gt;support modes&lt;/li&gt;&lt;ol&gt;&lt;li&gt;light&lt;/li&gt;&lt;li&gt;dark&lt;/li&gt;&lt;/ol&gt;&lt;li&gt;component themes&lt;/li&gt;&lt;ol&gt;&lt;li&gt;light&lt;/li&gt;&lt;li&gt;dark&lt;/li&gt;&lt;li&gt;custom&lt;/li&gt;&lt;/ol&gt;&lt;li&gt;main colors&lt;/li&gt;&lt;li&gt;color palates&lt;/li&gt;&lt;li&gt;customisation&lt;/li&gt;&lt;ol&gt;&lt;li&gt;main colors&lt;/li&gt;&lt;li&gt;color palates&lt;/li&gt;&lt;li&gt;component styles&lt;/li&gt;&lt;/ol&gt;&lt;/ol&gt;&lt;/h1&gt;" style="text;html=1;strokeColor=#82b366;fillColor=#d5e8d4;spacing=5;spacingTop=-20;whiteSpace=wrap;overflow=hidden;rounded=0;fontSize=15;" parent="1" vertex="1">
                    <mxGeometry x="40" y="920" width="230" height="310" as="geometry"/>
                </mxCell>
                <mxCell id="zX4bwrbI0dGe9knDL4wQ-29" value="&lt;span style=&quot;font-size: 15px&quot;&gt;&lt;b&gt;import { CrossIcon } from &quot;@blaze/react-icons&quot;&lt;br&gt;&lt;/b&gt;&lt;/span&gt;" style="text;html=1;align=center;verticalAlign=middle;whiteSpace=wrap;rounded=0;fillColor=#fff2cc;strokeColor=#d6b656;" parent="1" vertex="1">
                    <mxGeometry x="240" y="420" width="450" height="30" as="geometry"/>
                </mxCell>
                <mxCell id="zX4bwrbI0dGe9knDL4wQ-31" value="&lt;h1 style=&quot;font-size: 18px&quot;&gt;&lt;ol&gt;&lt;li&gt;types of Icons&lt;br&gt;&lt;/li&gt;&lt;ol&gt;&lt;li&gt;solid&lt;/li&gt;&lt;li&gt;outline&lt;/li&gt;&lt;/ol&gt;&lt;li&gt;size&lt;/li&gt;&lt;ol&gt;&lt;li&gt;sm&lt;/li&gt;&lt;li&gt;md&lt;/li&gt;&lt;li&gt;lg&lt;/li&gt;&lt;li&gt;xl&lt;/li&gt;&lt;/ol&gt;&lt;li&gt;color&lt;br&gt;&lt;/li&gt;&lt;/ol&gt;&lt;/h1&gt;" style="text;html=1;strokeColor=#82b366;fillColor=#d5e8d4;spacing=5;spacingTop=-20;whiteSpace=wrap;overflow=hidden;rounded=0;fontSize=15;" parent="1" vertex="1">
                    <mxGeometry x="750" y="500" width="190" height="210" as="geometry"/>
                </mxCell>
                <mxCell id="zX4bwrbI0dGe9knDL4wQ-32" value="&lt;span style=&quot;font-size: 15px&quot;&gt;&lt;b&gt;props&lt;br&gt;&lt;/b&gt;&lt;/span&gt;" style="text;html=1;align=center;verticalAlign=middle;whiteSpace=wrap;rounded=0;fillColor=#ffe6cc;strokeColor=#d79b00;" parent="1" vertex="1">
                    <mxGeometry x="750" y="470" width="92.5" height="30" as="geometry"/>
                </mxCell>
                <mxCell id="zX4bwrbI0dGe9knDL4wQ-33" value="&lt;span style=&quot;font-size: 15px&quot;&gt;&lt;b&gt;import&amp;nbsp; &quot;@blaze/themes/styles/globals.css&quot;&lt;/b&gt;&lt;/span&gt;&lt;span style=&quot;font-size: 15px&quot;&gt;&lt;b&gt;&lt;br&gt;&lt;/b&gt;&lt;/span&gt;" style="text;html=1;align=center;verticalAlign=middle;whiteSpace=wrap;rounded=0;fillColor=#fff2cc;strokeColor=#d6b656;" parent="1" vertex="1">
                    <mxGeometry x="320" y="930" width="400" height="40" as="geometry"/>
                </mxCell>
                <mxCell id="zX4bwrbI0dGe9knDL4wQ-35" value="&lt;span style=&quot;font-size: 15px&quot;&gt;&lt;b&gt;import { mainColors } from &quot;@blaze/themes&quot;&lt;br&gt;&lt;/b&gt;&lt;/span&gt;" style="text;html=1;align=center;verticalAlign=middle;whiteSpace=wrap;rounded=0;fillColor=#fff2cc;strokeColor=#d6b656;" parent="1" vertex="1">
                    <mxGeometry x="320" y="1090" width="400" height="30" as="geometry"/>
                </mxCell>
                <mxCell id="zX4bwrbI0dGe9knDL4wQ-36" value="&lt;span style=&quot;font-size: 15px&quot;&gt;&lt;b&gt;import { mainColors , colorPalette, extendStyles } from &quot;@blaze/themes/colors&quot;&lt;br&gt;&lt;/b&gt;&lt;/span&gt;" style="text;html=1;align=center;verticalAlign=middle;whiteSpace=wrap;rounded=0;fillColor=#fff2cc;strokeColor=#d6b656;" parent="1" vertex="1">
                    <mxGeometry x="320" y="1140" width="400" height="90" as="geometry"/>
                </mxCell>
                <mxCell id="zX4bwrbI0dGe9knDL4wQ-37" value="&lt;span style=&quot;font-size: 15px&quot;&gt;&lt;b&gt;components&lt;br&gt;&lt;/b&gt;&lt;/span&gt;" style="text;html=1;align=center;verticalAlign=middle;whiteSpace=wrap;rounded=0;fillColor=#fff2cc;strokeColor=#d6b656;" parent="1" vertex="1">
                    <mxGeometry x="1200" y="390" width="100" height="30" as="geometry"/>
                </mxCell>
                <mxCell id="zX4bwrbI0dGe9knDL4wQ-38" value="&lt;span style=&quot;font-size: 15px&quot;&gt;&lt;b&gt;import { Button } from &quot;@blaze/uikit&quot;&lt;br&gt;&lt;/b&gt;&lt;/span&gt;" style="text;html=1;align=center;verticalAlign=middle;whiteSpace=wrap;rounded=0;fillColor=#fff2cc;strokeColor=#d6b656;" parent="1" vertex="1">
                    <mxGeometry x="1360" y="390" width="280" height="30" as="geometry"/>
                </mxCell>
                <mxCell id="zX4bwrbI0dGe9knDL4wQ-39" value="&lt;span style=&quot;font-size: 15px&quot;&gt;&lt;b&gt;Export all the components with its types&lt;br&gt;&lt;/b&gt;&lt;/span&gt;" style="text;html=1;align=center;verticalAlign=middle;whiteSpace=wrap;rounded=0;fillColor=#d5e8d4;strokeColor=#82b366;" parent="1" vertex="1">
                    <mxGeometry x="1200" y="340" width="350" height="30" as="geometry"/>
                </mxCell>
                <mxCell id="zX4bwrbI0dGe9knDL4wQ-40" value="&lt;span style=&quot;font-size: 15px&quot;&gt;&lt;b&gt;types&lt;br&gt;&lt;/b&gt;&lt;/span&gt;" style="text;html=1;align=center;verticalAlign=middle;whiteSpace=wrap;rounded=0;fillColor=#fff2cc;strokeColor=#d6b656;" parent="1" vertex="1">
                    <mxGeometry x="1200" y="430" width="100" height="30" as="geometry"/>
                </mxCell>
                <mxCell id="zX4bwrbI0dGe9knDL4wQ-41" value="&lt;div&gt;&lt;b style=&quot;font-size: 15px&quot;&gt;import type { ButtonProps } from &quot;@blaze/uikit/types&quot;&lt;/b&gt;&lt;/div&gt;" style="text;html=1;align=center;verticalAlign=middle;whiteSpace=wrap;rounded=0;fillColor=#fff2cc;strokeColor=#d6b656;" parent="1" vertex="1">
                    <mxGeometry x="1360" y="430" width="400" height="30" as="geometry"/>
                </mxCell>
                <mxCell id="zX4bwrbI0dGe9knDL4wQ-42" value="&lt;h1 style=&quot;font-size: 18px&quot;&gt;&lt;ol&gt;&lt;li&gt;themes&lt;/li&gt;&lt;ol&gt;&lt;li&gt;dark&lt;/li&gt;&lt;li&gt;light&lt;/li&gt;&lt;/ol&gt;&lt;li&gt;rtl&amp;nbsp;&lt;/li&gt;&lt;ol&gt;&lt;li&gt;right to left&amp;nbsp;&lt;/li&gt;&lt;li&gt;left to right&lt;/li&gt;&lt;/ol&gt;&lt;li&gt;responsivness&lt;/li&gt;&lt;li&gt;types / typed props&lt;/li&gt;&lt;li&gt;i18n&lt;/li&gt;&lt;li&gt;accessibility (aria label )&lt;/li&gt;&lt;/ol&gt;&lt;/h1&gt;" style="text;html=1;strokeColor=#82b366;fillColor=#d5e8d4;spacing=5;spacingTop=-20;whiteSpace=wrap;overflow=hidden;rounded=0;fontSize=15;" parent="1" vertex="1">
                    <mxGeometry x="1200" y="560" width="240" height="250" as="geometry"/>
                </mxCell>
                <mxCell id="zX4bwrbI0dGe9knDL4wQ-43" value="&lt;div style=&quot;text-align: left&quot;&gt;&lt;b style=&quot;font-size: 15px&quot;&gt;components must comply&amp;nbsp;&lt;/b&gt;&lt;/div&gt;" style="text;html=1;align=center;verticalAlign=middle;whiteSpace=wrap;rounded=0;fillColor=#ffe6cc;strokeColor=#d79b00;" parent="1" vertex="1">
                    <mxGeometry x="1200" y="530" width="200" height="30" as="geometry"/>
                </mxCell>
                <mxCell id="zX4bwrbI0dGe9knDL4wQ-44" value="&lt;h1 style=&quot;font-size: 18px&quot;&gt;&lt;ol&gt;&lt;li&gt;it should only expose&amp;nbsp;&lt;/li&gt;&lt;ol&gt;&lt;li&gt;proptypes&lt;/li&gt;&lt;li&gt;components&lt;/li&gt;&lt;/ol&gt;&lt;li&gt;internals must not be exposed,&lt;/li&gt;&lt;ol&gt;&lt;li&gt;hooks&lt;/li&gt;&lt;li&gt;utils&lt;/li&gt;&lt;/ol&gt;&lt;/ol&gt;&lt;/h1&gt;" style="text;html=1;strokeColor=#82b366;fillColor=#d5e8d4;spacing=5;spacingTop=-20;whiteSpace=wrap;overflow=hidden;rounded=0;fontSize=15;" parent="1" vertex="1">
                    <mxGeometry x="1500" y="565" width="240" height="175" as="geometry"/>
                </mxCell>
                <mxCell id="zX4bwrbI0dGe9knDL4wQ-45" value="&lt;span style=&quot;font-size: 15px&quot;&gt;&lt;b&gt;import&amp;nbsp; &quot;@blaze/themes/styles/light.css&quot;&lt;br&gt;&lt;/b&gt;&lt;/span&gt;&lt;b style=&quot;font-size: 15px&quot;&gt;import&amp;nbsp; &quot;@blaze/themes/styles/dark.css&quot;&lt;/b&gt;&lt;span style=&quot;font-size: 15px&quot;&gt;&lt;b&gt;&lt;br&gt;&lt;/b&gt;&lt;/span&gt;" style="text;html=1;align=center;verticalAlign=middle;whiteSpace=wrap;rounded=0;fillColor=#fff2cc;strokeColor=#d6b656;" parent="1" vertex="1">
                    <mxGeometry x="320" y="1000" width="400" height="60" as="geometry"/>
                </mxCell>
                <mxCell id="zX4bwrbI0dGe9knDL4wQ-46" value="&lt;h1&gt;&lt;ol style=&quot;font-size: 15px&quot;&gt;&lt;li&gt;Fonts&lt;/li&gt;&lt;ol&gt;&lt;li&gt;popins&lt;/li&gt;&lt;li&gt;fallback&lt;/li&gt;&lt;/ol&gt;&lt;/ol&gt;&lt;/h1&gt;" style="text;html=1;strokeColor=#82b366;fillColor=#d5e8d4;spacing=5;spacingTop=-20;whiteSpace=wrap;overflow=hidden;rounded=0;fontSize=15;" parent="1" vertex="1">
                    <mxGeometry x="40" y="1320" width="230" height="80" as="geometry"/>
                </mxCell>
                <mxCell id="zX4bwrbI0dGe9knDL4wQ-47" value="&lt;h1&gt;&lt;ol style=&quot;font-size: 15px&quot;&gt;&lt;li&gt;font weights&lt;/li&gt;&lt;li&gt;font size&lt;/li&gt;&lt;ol&gt;&lt;li&gt;popins&lt;/li&gt;&lt;li&gt;fallback&lt;/li&gt;&lt;/ol&gt;&lt;/ol&gt;&lt;/h1&gt;" style="text;html=1;strokeColor=#82b366;fillColor=#d5e8d4;spacing=5;spacingTop=-20;whiteSpace=wrap;overflow=hidden;rounded=0;fontSize=15;" parent="1" vertex="1">
                    <mxGeometry x="320" y="1320" width="230" height="80" as="geometry"/>
                </mxCell>
            </root>
        </mxGraphModel>
    </diagram>
</mxfile>